<svg width="555" height="118" viewBox="0 0 555 118" fill="none" xmlns="http://www.w3.org/2000/svg">
<path d="M4 115H4.76837e-07V68.4H4C4 80.9333 8.46667 91.6 17.4 100.4C26.4667 109.2 37.4667 113.6 50.4 113.6C55.7333 113.6 60 112.067 63.2 109C66.5333 105.8 68.2 101.6 68.2 96.4C68.2 90.5333 64.4 85.5333 56.8 81.4C52.6667 79.2667 45.5333 75.9333 35.4 71.4C25.2667 66.7333 18.1333 62.8 14 59.6C5.73333 53.2 2.06667 44.7333 3 34.2C4.06667 23.6667 8.06667 15.5333 15 9.8C21.9333 3.93332 29.7333 0.99999 38.4 0.99999C47.2 0.99999 55.0667 2.19999 62 4.59999C69.0667 6.86666 73.0667 7.99999 74 7.99999C76.6667 7.99999 78 5.66666 78 0.99999H82V37.6H78C78 28 74.4667 20.2 67.4 14.2C60.3333 8.06666 51.2667 5 40.2 5C35.2667 5 31.4 6.46667 28.6 9.4C25.8 12.2 24.4 15.3333 24.4 18.8C24.4 22.2667 24.8667 24.9333 25.8 26.8C26.7333 28.6667 28.3333 30.4 30.6 32C33 33.4667 35.0667 34.6667 36.8 35.6C38.5333 36.5333 41.2667 37.8 45 39.4C48.8667 41 51.5333 42.1333 53 42.8C60.3333 46.1333 64.6667 48.1333 66 48.8C67.3333 49.3333 69.2667 50.2667 71.8 51.6C74.3333 52.9333 76.2 54.1333 77.4 55.2C78.7333 56.2667 80.4 57.6 82.4 59.2C84.4 60.8 85.8667 62.4667 86.8 64.2C87.7333 65.8 88.6667 67.6667 89.6 69.8C91.4667 74.0667 92.1333 79.0667 91.6 84.8C90.5333 95.6 86.4667 103.867 79.4 109.6C72.4667 115.2 63.0667 118 51.2 118C40.5333 118 29.9333 115.267 19.4 109.8C15.8 107.933 13.1333 107 11.4 107C6.46667 107 4 109.667 4 115ZM147.523 7V72.2C158.457 72.2 165.923 69.8667 169.923 65.2C173.923 60.4 175.923 52.0667 175.923 40.2C175.923 28.3333 173.923 19.8667 169.923 14.8C165.923 9.59999 158.457 7 147.523 7ZM157.523 111V115H107.523V111H117.523V7H107.523V3H147.323C186.523 1.13333 206.123 13.7333 206.123 40.8C206.123 52.8 201.19 61.9333 191.323 68.2C181.457 74.4667 166.857 77.1333 147.523 76.2V111H157.523ZM338.819 111V115H286.219V111H298.019L284.619 83.2H244.219L232.619 111H248.419V115H214.219V111H227.619L273.419 0.99999H278.419L329.219 111H338.819ZM246.019 79H282.619L263.019 38.2L246.019 79ZM445.734 47.6H441.734C441.734 36.9333 438.334 27.0667 431.534 18C424.734 8.93333 415.001 4.39999 402.334 4.39999C395.268 4.39999 389.401 8.53333 384.734 16.8C380.201 25.0667 377.934 39.2 377.934 59.2C377.934 79.2 380.201 93.3333 384.734 101.6C389.401 109.867 396.601 114 406.334 114C416.201 114 424.468 110.933 431.134 104.8C437.934 98.6667 442.134 90 443.734 78.8H447.734C445.868 92 441.201 101.867 433.734 108.4C426.401 114.8 417.601 118 407.334 118C387.468 118 372.201 113.267 361.534 103.8C351.001 94.2 345.734 79.2667 345.734 59C345.734 38.6 350.868 23.7333 361.134 14.4C371.534 5.06666 385.268 0.399997 402.334 0.399997C411.534 0.399997 420.468 2.86666 429.134 7.8C431.934 9.53333 434.201 10.4 435.934 10.4C437.801 10.4 439.268 9.6 440.334 7.99999C441.401 6.26666 441.934 4.59999 441.934 3H445.734V47.6ZM520.648 111C540.648 111 550.648 99.6667 550.648 77H554.648V115H460.648V111H470.648V7H460.648V3H552.648V37H548.648C548.648 25.1333 546.248 17.2 541.448 13.2C536.782 9.06666 529.182 7 518.648 7H500.648V55H508.648C518.248 55 524.315 53.8 526.848 51.4C529.382 49 530.648 44.2 530.648 37H534.648V77H530.648C530.648 69.5333 529.382 64.6667 526.848 62.4C524.315 60.1333 518.248 59 508.648 59H500.648V111H520.648Z" fill="#526161"/>
</svg>
